<?xml version="1.0" standalone="no"?>
<!DOCTYPE svg PUBLIC "-//W3C//DTD SVG 20010904//EN"
 "http://www.w3.org/TR/2001/REC-SVG-20010904/DTD/svg10.dtd">
<svg version="1.0" xmlns="http://www.w3.org/2000/svg"
 width="200.000000pt" height="200.000000pt" viewBox="0 0 200.000000 200.000000"
 preserveAspectRatio="xMidYMid meet">

<g transform="translate(0.000000,200.000000) scale(0.100000,-0.100000)"
fill="#000000" stroke="none">
<path d="M850 1985 c-14 -8 -35 -14 -48 -15 -30 0 -94 -45 -159 -112 -46 -46
-54 -61 -64 -113 -13 -70 -8 -191 15 -370 16 -125 31 -170 61 -182 8 -3 29
-30 46 -61 29 -53 30 -62 25 -132 -3 -46 -1 -69 4 -60 7 12 32 -7 115 -90 58
-58 108 -113 111 -123 7 -21 -16 -53 -108 -151 l-64 -69 -31 79 c-17 43 -41
121 -53 172 l-23 94 23 30 c12 16 20 31 18 34 -2 2 -38 -40 -79 -93 -85 -110
-82 -109 -394 -233 -99 -40 -195 -83 -212 -96 l-33 -25 0 -235 0 -234 1000 0
1000 0 0 339 0 339 -47 15 c-27 9 -106 32 -177 52 -261 75 -382 149 -444 271
-33 67 -36 116 -7 158 45 67 54 93 63 187 8 71 7 98 -3 113 -8 14 -15 80 -19
186 l-6 165 -73 73 c-39 41 -86 80 -104 88 -46 20 -298 19 -333 -1z m530
-1124 c0 -36 -4 -83 -9 -104 -10 -41 -60 -129 -102 -180 l-27 -32 -85 84 c-53
51 -84 88 -79 96 4 6 63 64 132 128 l125 116 22 -21 c19 -18 23 -32 23 -87z
m-40 -358 c-27 -191 -48 -318 -61 -367 l-11 -39 -38 94 c-56 139 -128 290
-155 325 l-23 31 37 44 38 43 53 -47 c29 -26 58 -47 66 -47 7 0 34 31 61 69
26 38 49 63 51 56 2 -8 -6 -81 -18 -162z m-405 72 c18 -35 18 -38 0 -108 -10
-40 -28 -119 -40 -177 -18 -92 -23 -102 -33 -83 -21 38 -121 343 -113 343 4 0
13 -11 19 -25 6 -14 15 -25 20 -25 4 0 32 25 62 55 30 30 57 55 60 55 3 0 14
-16 25 -35z"/>
</g>
</svg>
